<svg width="61" height="64" viewBox="0 0 61 64" fill="none" xmlns="http://www.w3.org/2000/svg">
    <path fill-rule="evenodd" clip-rule="evenodd" d="M30.5 0C13.6538 0 0 14.328 0 32C0 49.672 13.6538 64 30.5 64C47.3436 64 61 49.672 61 32C61 14.328 47.3436 0 30.5 0ZM30.8558 50.7147C21.0247 50.7147 13.0642 42.3413 13.0642 32C13.0642 21.6587 21.0247 13.2853 30.8558 13.2853C35.6596 13.2853 39.6754 15.144 42.7559 18.1627L37.7387 23.4373V23.4267C35.8705 21.5547 33.5017 20.5947 30.8558 20.5947C24.9846 20.5947 20.2139 25.8107 20.2139 31.9893C20.2139 38.1627 24.9846 43.3947 30.8558 43.3947C36.1832 43.3947 39.8076 40.1893 40.5548 35.7893H30.8558V28.4907H47.5927C47.8164 29.744 47.9358 31.0507 47.9358 32.4213C47.9358 43.1147 41.1318 50.7147 30.8558 50.7147Z" fill="#DC2107"/>
    </svg>
